<mxfile host="app.diagrams.net" modified="2021-10-01T00:07:43.518Z" agent="5.0 (Windows NT 6.1; Win64; x64) AppleWebKit/537.36 (KHTML, like Gecko) Chrome/93.0.4577.82 Safari/537.36" etag="KfZqaHgECpv-SzABSLBP" version="15.4.0" type="github">
  <diagram id="C5RBs43oDa-KdzZeNtuy" name="Page-1">
    <mxGraphModel dx="1422" dy="762" grid="1" gridSize="10" guides="1" tooltips="1" connect="1" arrows="1" fold="1" page="1" pageScale="1" pageWidth="827" pageHeight="1169" math="0" shadow="0">
      <root>
        <mxCell id="WIyWlLk6GJQsqaUBKTNV-0" />
        <mxCell id="WIyWlLk6GJQsqaUBKTNV-1" parent="WIyWlLk6GJQsqaUBKTNV-0" />
        <mxCell id="FupmvhsSTydDdCJmexPb-85" value="" style="group;opacity=50;" vertex="1" connectable="0" parent="WIyWlLk6GJQsqaUBKTNV-1">
          <mxGeometry x="13" y="115" width="710" height="138" as="geometry" />
        </mxCell>
        <mxCell id="FupmvhsSTydDdCJmexPb-86" value="" style="rounded=1;whiteSpace=wrap;html=1;strokeWidth=2;fillWeight=4;hachureGap=8;hachureAngle=45;fillColor=#1ba1e2;sketch=1;opacity=40;" vertex="1" parent="FupmvhsSTydDdCJmexPb-85">
          <mxGeometry x="200" width="510" height="138" as="geometry" />
        </mxCell>
        <mxCell id="FupmvhsSTydDdCJmexPb-87" value="" style="line;strokeWidth=2;html=1;" vertex="1" parent="FupmvhsSTydDdCJmexPb-85">
          <mxGeometry x="60" y="61.41" width="140" height="9.2" as="geometry" />
        </mxCell>
        <mxCell id="FupmvhsSTydDdCJmexPb-88" value="Service" style="text;html=1;strokeColor=none;fillColor=none;align=center;verticalAlign=middle;whiteSpace=wrap;rounded=0;" vertex="1" parent="FupmvhsSTydDdCJmexPb-85">
          <mxGeometry y="52.440000000000005" width="60" height="27.6" as="geometry" />
        </mxCell>
        <mxCell id="FupmvhsSTydDdCJmexPb-71" value="" style="group" vertex="1" connectable="0" parent="WIyWlLk6GJQsqaUBKTNV-1">
          <mxGeometry x="6" y="272" width="710" height="138" as="geometry" />
        </mxCell>
        <mxCell id="FupmvhsSTydDdCJmexPb-72" value="" style="rounded=1;whiteSpace=wrap;html=1;strokeWidth=2;fillWeight=4;hachureGap=8;hachureAngle=45;fillColor=#1ba1e2;sketch=1;opacity=40;" vertex="1" parent="FupmvhsSTydDdCJmexPb-71">
          <mxGeometry x="200" width="510" height="138" as="geometry" />
        </mxCell>
        <mxCell id="FupmvhsSTydDdCJmexPb-73" value="" style="line;strokeWidth=2;html=1;" vertex="1" parent="FupmvhsSTydDdCJmexPb-71">
          <mxGeometry x="60" y="61.41" width="140" height="9.2" as="geometry" />
        </mxCell>
        <mxCell id="FupmvhsSTydDdCJmexPb-74" value="Service" style="text;html=1;strokeColor=none;fillColor=none;align=center;verticalAlign=middle;whiteSpace=wrap;rounded=0;" vertex="1" parent="FupmvhsSTydDdCJmexPb-71">
          <mxGeometry y="52.440000000000005" width="60" height="27.6" as="geometry" />
        </mxCell>
        <mxCell id="zkfFHV4jXpPFQw0GAbJ--0" value="Cluster" style="swimlane;fontStyle=2;align=center;verticalAlign=top;childLayout=stackLayout;horizontal=1;startSize=26;horizontalStack=0;resizeParent=1;resizeLast=0;collapsible=1;marginBottom=0;rounded=0;shadow=0;strokeWidth=1;" parent="WIyWlLk6GJQsqaUBKTNV-1" vertex="1">
          <mxGeometry x="170" y="40" width="580" height="590" as="geometry">
            <mxRectangle x="230" y="140" width="160" height="26" as="alternateBounds" />
          </mxGeometry>
        </mxCell>
        <mxCell id="zkfFHV4jXpPFQw0GAbJ--17" value="Worker Node 1&#xa;" style="swimlane;fontStyle=0;align=center;verticalAlign=top;childLayout=stackLayout;horizontal=1;startSize=26;horizontalStack=0;resizeParent=1;resizeLast=0;collapsible=1;marginBottom=0;rounded=0;shadow=0;strokeWidth=1;" parent="WIyWlLk6GJQsqaUBKTNV-1" vertex="1">
          <mxGeometry x="223" y="78" width="150" height="542" as="geometry">
            <mxRectangle x="550" y="140" width="160" height="26" as="alternateBounds" />
          </mxGeometry>
        </mxCell>
        <mxCell id="FupmvhsSTydDdCJmexPb-0" value="Worker Node 2&#xa;" style="swimlane;fontStyle=0;align=center;verticalAlign=top;childLayout=stackLayout;horizontal=1;startSize=26;horizontalStack=0;resizeParent=1;resizeLast=0;collapsible=1;marginBottom=0;rounded=0;shadow=0;strokeWidth=1;" vertex="1" parent="WIyWlLk6GJQsqaUBKTNV-1">
          <mxGeometry x="398" y="77" width="150" height="543" as="geometry">
            <mxRectangle x="550" y="140" width="160" height="26" as="alternateBounds" />
          </mxGeometry>
        </mxCell>
        <mxCell id="FupmvhsSTydDdCJmexPb-1" value="Worker Node 3&#xa;" style="swimlane;fontStyle=0;align=center;verticalAlign=top;childLayout=stackLayout;horizontal=1;startSize=26;horizontalStack=0;resizeParent=1;resizeLast=0;collapsible=1;marginBottom=0;rounded=0;shadow=0;strokeWidth=1;" vertex="1" parent="WIyWlLk6GJQsqaUBKTNV-1">
          <mxGeometry x="573" y="77" width="150" height="543" as="geometry">
            <mxRectangle x="550" y="140" width="160" height="26" as="alternateBounds" />
          </mxGeometry>
        </mxCell>
        <mxCell id="FupmvhsSTydDdCJmexPb-54" value="&lt;span style=&quot;color: rgb(17 , 17 , 17) ; font-family: , &amp;#34;blinkmacsystemfont&amp;#34; , &amp;#34;segoe ui&amp;#34; , &amp;#34;roboto&amp;#34; , &amp;#34;helvetica&amp;#34; , &amp;#34;arial&amp;#34; , sans-serif , &amp;#34;apple color emoji&amp;#34; , &amp;#34;segoe ui emoji&amp;#34; , &amp;#34;segoe ui symbol&amp;#34; ; font-size: 16px ; background-color: rgb(245 , 245 , 245)&quot;&gt;HTTP message coming from the internet&lt;/span&gt;" style="ellipse;shape=cloud;whiteSpace=wrap;html=1;" vertex="1" parent="WIyWlLk6GJQsqaUBKTNV-1">
          <mxGeometry x="210" y="810" width="270" height="140" as="geometry" />
        </mxCell>
        <mxCell id="FupmvhsSTydDdCJmexPb-57" value="" style="group" vertex="1" connectable="0" parent="WIyWlLk6GJQsqaUBKTNV-1">
          <mxGeometry x="590" y="760" width="160" height="138" as="geometry" />
        </mxCell>
        <mxCell id="zkfFHV4jXpPFQw0GAbJ--6" value="My computer" style="swimlane;fontStyle=0;align=center;verticalAlign=top;childLayout=stackLayout;horizontal=1;startSize=26;horizontalStack=0;resizeParent=1;resizeLast=0;collapsible=1;marginBottom=0;rounded=0;shadow=0;strokeWidth=1;" parent="FupmvhsSTydDdCJmexPb-57" vertex="1">
          <mxGeometry width="160" height="138" as="geometry">
            <mxRectangle x="130" y="380" width="160" height="26" as="alternateBounds" />
          </mxGeometry>
        </mxCell>
        <mxCell id="FupmvhsSTydDdCJmexPb-53" value="&lt;span style=&quot;color: rgb(17 , 17 , 17) ; font-family: , &amp;#34;blinkmacsystemfont&amp;#34; , &amp;#34;segoe ui&amp;#34; , &amp;#34;roboto&amp;#34; , &amp;#34;helvetica&amp;#34; , &amp;#34;arial&amp;#34; , sans-serif , &amp;#34;apple color emoji&amp;#34; , &amp;#34;segoe ui emoji&amp;#34; , &amp;#34;segoe ui symbol&amp;#34; ; font-size: 16px ; background-color: rgb(245 , 245 , 245)&quot;&gt;kubectl&lt;/span&gt;" style="shape=hexagon;perimeter=hexagonPerimeter2;whiteSpace=wrap;html=1;fixedSize=1;" vertex="1" parent="FupmvhsSTydDdCJmexPb-57">
          <mxGeometry x="21" y="36" width="118" height="80" as="geometry" />
        </mxCell>
        <mxCell id="FupmvhsSTydDdCJmexPb-58" value="" style="group" vertex="1" connectable="0" parent="WIyWlLk6GJQsqaUBKTNV-1">
          <mxGeometry x="233" y="271" width="130" height="133.5" as="geometry" />
        </mxCell>
        <mxCell id="FupmvhsSTydDdCJmexPb-27" value="Pod app2" style="swimlane;fontStyle=0;align=center;verticalAlign=top;childLayout=stackLayout;horizontal=1;startSize=26;horizontalStack=0;resizeParent=1;resizeLast=0;collapsible=1;marginBottom=0;rounded=0;shadow=0;strokeWidth=1;" vertex="1" parent="FupmvhsSTydDdCJmexPb-58">
          <mxGeometry width="130" height="133.5" as="geometry">
            <mxRectangle x="340" y="380" width="170" height="26" as="alternateBounds" />
          </mxGeometry>
        </mxCell>
        <mxCell id="FupmvhsSTydDdCJmexPb-28" value="Container" style="ellipse;shape=doubleEllipse;whiteSpace=wrap;html=1;" vertex="1" parent="FupmvhsSTydDdCJmexPb-58">
          <mxGeometry x="6" y="32" width="68" height="33" as="geometry" />
        </mxCell>
        <mxCell id="FupmvhsSTydDdCJmexPb-29" value="Container" style="ellipse;shape=doubleEllipse;whiteSpace=wrap;html=1;" vertex="1" parent="FupmvhsSTydDdCJmexPb-58">
          <mxGeometry x="5" y="87" width="68" height="33" as="geometry" />
        </mxCell>
        <mxCell id="FupmvhsSTydDdCJmexPb-30" value="Volume" style="shape=cylinder3;whiteSpace=wrap;html=1;boundedLbl=1;backgroundOutline=1;size=15;" vertex="1" parent="FupmvhsSTydDdCJmexPb-58">
          <mxGeometry x="77" y="52" width="51" height="50" as="geometry" />
        </mxCell>
        <mxCell id="FupmvhsSTydDdCJmexPb-59" value="" style="group" vertex="1" connectable="0" parent="WIyWlLk6GJQsqaUBKTNV-1">
          <mxGeometry x="234" y="116" width="130" height="133.5" as="geometry" />
        </mxCell>
        <mxCell id="FupmvhsSTydDdCJmexPb-20" value="Pod app2" style="swimlane;fontStyle=0;align=center;verticalAlign=top;childLayout=stackLayout;horizontal=1;startSize=26;horizontalStack=0;resizeParent=1;resizeLast=0;collapsible=1;marginBottom=0;rounded=0;shadow=0;strokeWidth=1;" vertex="1" parent="FupmvhsSTydDdCJmexPb-59">
          <mxGeometry width="130" height="133.5" as="geometry">
            <mxRectangle x="340" y="380" width="170" height="26" as="alternateBounds" />
          </mxGeometry>
        </mxCell>
        <mxCell id="FupmvhsSTydDdCJmexPb-21" value="Container" style="ellipse;shape=doubleEllipse;whiteSpace=wrap;html=1;" vertex="1" parent="FupmvhsSTydDdCJmexPb-59">
          <mxGeometry x="6" y="32" width="68" height="33" as="geometry" />
        </mxCell>
        <mxCell id="FupmvhsSTydDdCJmexPb-22" value="Container" style="ellipse;shape=doubleEllipse;whiteSpace=wrap;html=1;" vertex="1" parent="FupmvhsSTydDdCJmexPb-59">
          <mxGeometry x="5" y="87" width="68" height="33" as="geometry" />
        </mxCell>
        <mxCell id="FupmvhsSTydDdCJmexPb-23" value="Volume" style="shape=cylinder3;whiteSpace=wrap;html=1;boundedLbl=1;backgroundOutline=1;size=15;" vertex="1" parent="FupmvhsSTydDdCJmexPb-59">
          <mxGeometry x="74" y="53" width="51" height="50" as="geometry" />
        </mxCell>
        <mxCell id="FupmvhsSTydDdCJmexPb-24" value="Pod app1" style="swimlane;fontStyle=0;align=center;verticalAlign=top;childLayout=stackLayout;horizontal=1;startSize=26;horizontalStack=0;resizeParent=1;resizeLast=0;collapsible=1;marginBottom=0;rounded=0;shadow=0;strokeWidth=1;" vertex="1" parent="FupmvhsSTydDdCJmexPb-59">
          <mxGeometry width="130" height="133.5" as="geometry">
            <mxRectangle x="340" y="380" width="170" height="26" as="alternateBounds" />
          </mxGeometry>
        </mxCell>
        <mxCell id="FupmvhsSTydDdCJmexPb-25" value="Container" style="ellipse;shape=doubleEllipse;whiteSpace=wrap;html=1;" vertex="1" parent="FupmvhsSTydDdCJmexPb-59">
          <mxGeometry x="6" y="32" width="68" height="33" as="geometry" />
        </mxCell>
        <mxCell id="FupmvhsSTydDdCJmexPb-26" value="Container" style="ellipse;shape=doubleEllipse;whiteSpace=wrap;html=1;" vertex="1" parent="FupmvhsSTydDdCJmexPb-59">
          <mxGeometry x="5" y="87" width="68" height="33" as="geometry" />
        </mxCell>
        <mxCell id="FupmvhsSTydDdCJmexPb-60" value="" style="group" vertex="1" connectable="0" parent="WIyWlLk6GJQsqaUBKTNV-1">
          <mxGeometry x="409" y="116" width="130" height="133.5" as="geometry" />
        </mxCell>
        <mxCell id="FupmvhsSTydDdCJmexPb-31" value="Pod app2" style="swimlane;fontStyle=0;align=center;verticalAlign=top;childLayout=stackLayout;horizontal=1;startSize=26;horizontalStack=0;resizeParent=1;resizeLast=0;collapsible=1;marginBottom=0;rounded=0;shadow=0;strokeWidth=1;" vertex="1" parent="FupmvhsSTydDdCJmexPb-60">
          <mxGeometry width="130" height="133.5" as="geometry">
            <mxRectangle x="340" y="380" width="170" height="26" as="alternateBounds" />
          </mxGeometry>
        </mxCell>
        <mxCell id="FupmvhsSTydDdCJmexPb-32" value="Container" style="ellipse;shape=doubleEllipse;whiteSpace=wrap;html=1;" vertex="1" parent="FupmvhsSTydDdCJmexPb-60">
          <mxGeometry x="6" y="32" width="68" height="33" as="geometry" />
        </mxCell>
        <mxCell id="FupmvhsSTydDdCJmexPb-33" value="Container" style="ellipse;shape=doubleEllipse;whiteSpace=wrap;html=1;" vertex="1" parent="FupmvhsSTydDdCJmexPb-60">
          <mxGeometry x="5" y="87" width="68" height="33" as="geometry" />
        </mxCell>
        <mxCell id="FupmvhsSTydDdCJmexPb-34" value="Volume" style="shape=cylinder3;whiteSpace=wrap;html=1;boundedLbl=1;backgroundOutline=1;size=15;" vertex="1" parent="FupmvhsSTydDdCJmexPb-60">
          <mxGeometry x="74" y="53" width="51" height="50" as="geometry" />
        </mxCell>
        <mxCell id="FupmvhsSTydDdCJmexPb-35" value="Pod app1" style="swimlane;fontStyle=0;align=center;verticalAlign=top;childLayout=stackLayout;horizontal=1;startSize=26;horizontalStack=0;resizeParent=1;resizeLast=0;collapsible=1;marginBottom=0;rounded=0;shadow=0;strokeWidth=1;" vertex="1" parent="FupmvhsSTydDdCJmexPb-60">
          <mxGeometry width="130" height="133.5" as="geometry">
            <mxRectangle x="340" y="380" width="170" height="26" as="alternateBounds" />
          </mxGeometry>
        </mxCell>
        <mxCell id="FupmvhsSTydDdCJmexPb-36" value="Container" style="ellipse;shape=doubleEllipse;whiteSpace=wrap;html=1;" vertex="1" parent="FupmvhsSTydDdCJmexPb-60">
          <mxGeometry x="6" y="32" width="68" height="33" as="geometry" />
        </mxCell>
        <mxCell id="FupmvhsSTydDdCJmexPb-37" value="Container" style="ellipse;shape=doubleEllipse;whiteSpace=wrap;html=1;" vertex="1" parent="FupmvhsSTydDdCJmexPb-60">
          <mxGeometry x="5" y="87" width="68" height="33" as="geometry" />
        </mxCell>
        <mxCell id="FupmvhsSTydDdCJmexPb-61" value="" style="group" vertex="1" connectable="0" parent="WIyWlLk6GJQsqaUBKTNV-1">
          <mxGeometry x="408" y="271" width="130" height="133.5" as="geometry" />
        </mxCell>
        <mxCell id="FupmvhsSTydDdCJmexPb-38" value="Pod app2" style="swimlane;fontStyle=0;align=center;verticalAlign=top;childLayout=stackLayout;horizontal=1;startSize=26;horizontalStack=0;resizeParent=1;resizeLast=0;collapsible=1;marginBottom=0;rounded=0;shadow=0;strokeWidth=1;" vertex="1" parent="FupmvhsSTydDdCJmexPb-61">
          <mxGeometry width="130" height="133.5" as="geometry">
            <mxRectangle x="340" y="380" width="170" height="26" as="alternateBounds" />
          </mxGeometry>
        </mxCell>
        <mxCell id="FupmvhsSTydDdCJmexPb-39" value="Container" style="ellipse;shape=doubleEllipse;whiteSpace=wrap;html=1;" vertex="1" parent="FupmvhsSTydDdCJmexPb-61">
          <mxGeometry x="6" y="32" width="68" height="33" as="geometry" />
        </mxCell>
        <mxCell id="FupmvhsSTydDdCJmexPb-40" value="Container" style="ellipse;shape=doubleEllipse;whiteSpace=wrap;html=1;" vertex="1" parent="FupmvhsSTydDdCJmexPb-61">
          <mxGeometry x="5" y="87" width="68" height="33" as="geometry" />
        </mxCell>
        <mxCell id="FupmvhsSTydDdCJmexPb-41" value="Volume" style="shape=cylinder3;whiteSpace=wrap;html=1;boundedLbl=1;backgroundOutline=1;size=15;" vertex="1" parent="FupmvhsSTydDdCJmexPb-61">
          <mxGeometry x="77" y="52" width="51" height="50" as="geometry" />
        </mxCell>
        <mxCell id="FupmvhsSTydDdCJmexPb-62" value="" style="group" vertex="1" connectable="0" parent="WIyWlLk6GJQsqaUBKTNV-1">
          <mxGeometry x="581" y="270" width="130" height="133.5" as="geometry" />
        </mxCell>
        <mxCell id="FupmvhsSTydDdCJmexPb-49" value="Pod app2" style="swimlane;fontStyle=0;align=center;verticalAlign=top;childLayout=stackLayout;horizontal=1;startSize=26;horizontalStack=0;resizeParent=1;resizeLast=0;collapsible=1;marginBottom=0;rounded=0;shadow=0;strokeWidth=1;" vertex="1" parent="FupmvhsSTydDdCJmexPb-62">
          <mxGeometry width="130" height="133.5" as="geometry">
            <mxRectangle x="340" y="380" width="170" height="26" as="alternateBounds" />
          </mxGeometry>
        </mxCell>
        <mxCell id="FupmvhsSTydDdCJmexPb-50" value="Container" style="ellipse;shape=doubleEllipse;whiteSpace=wrap;html=1;" vertex="1" parent="FupmvhsSTydDdCJmexPb-62">
          <mxGeometry x="6" y="32" width="68" height="33" as="geometry" />
        </mxCell>
        <mxCell id="FupmvhsSTydDdCJmexPb-51" value="Container" style="ellipse;shape=doubleEllipse;whiteSpace=wrap;html=1;" vertex="1" parent="FupmvhsSTydDdCJmexPb-62">
          <mxGeometry x="5" y="87" width="68" height="33" as="geometry" />
        </mxCell>
        <mxCell id="FupmvhsSTydDdCJmexPb-52" value="Volume" style="shape=cylinder3;whiteSpace=wrap;html=1;boundedLbl=1;backgroundOutline=1;size=15;" vertex="1" parent="FupmvhsSTydDdCJmexPb-62">
          <mxGeometry x="77" y="52" width="51" height="50" as="geometry" />
        </mxCell>
        <mxCell id="FupmvhsSTydDdCJmexPb-63" value="" style="group" vertex="1" connectable="0" parent="WIyWlLk6GJQsqaUBKTNV-1">
          <mxGeometry x="582" y="115" width="130" height="133.5" as="geometry" />
        </mxCell>
        <mxCell id="FupmvhsSTydDdCJmexPb-42" value="Pod app2" style="swimlane;fontStyle=0;align=center;verticalAlign=top;childLayout=stackLayout;horizontal=1;startSize=26;horizontalStack=0;resizeParent=1;resizeLast=0;collapsible=1;marginBottom=0;rounded=0;shadow=0;strokeWidth=1;" vertex="1" parent="FupmvhsSTydDdCJmexPb-63">
          <mxGeometry width="130" height="133.5" as="geometry">
            <mxRectangle x="340" y="380" width="170" height="26" as="alternateBounds" />
          </mxGeometry>
        </mxCell>
        <mxCell id="FupmvhsSTydDdCJmexPb-43" value="Container" style="ellipse;shape=doubleEllipse;whiteSpace=wrap;html=1;" vertex="1" parent="FupmvhsSTydDdCJmexPb-63">
          <mxGeometry x="6" y="32" width="68" height="33" as="geometry" />
        </mxCell>
        <mxCell id="FupmvhsSTydDdCJmexPb-44" value="Container" style="ellipse;shape=doubleEllipse;whiteSpace=wrap;html=1;" vertex="1" parent="FupmvhsSTydDdCJmexPb-63">
          <mxGeometry x="5" y="87" width="68" height="33" as="geometry" />
        </mxCell>
        <mxCell id="FupmvhsSTydDdCJmexPb-45" value="Volume" style="shape=cylinder3;whiteSpace=wrap;html=1;boundedLbl=1;backgroundOutline=1;size=15;" vertex="1" parent="FupmvhsSTydDdCJmexPb-63">
          <mxGeometry x="74" y="53" width="51" height="50" as="geometry" />
        </mxCell>
        <mxCell id="FupmvhsSTydDdCJmexPb-46" value="Pod app1" style="swimlane;fontStyle=0;align=center;verticalAlign=top;childLayout=stackLayout;horizontal=1;startSize=26;horizontalStack=0;resizeParent=1;resizeLast=0;collapsible=1;marginBottom=0;rounded=0;shadow=0;strokeWidth=1;" vertex="1" parent="FupmvhsSTydDdCJmexPb-63">
          <mxGeometry width="130" height="133.5" as="geometry">
            <mxRectangle x="340" y="380" width="170" height="26" as="alternateBounds" />
          </mxGeometry>
        </mxCell>
        <mxCell id="FupmvhsSTydDdCJmexPb-47" value="Container" style="ellipse;shape=doubleEllipse;whiteSpace=wrap;html=1;" vertex="1" parent="FupmvhsSTydDdCJmexPb-63">
          <mxGeometry x="6" y="32" width="68" height="33" as="geometry" />
        </mxCell>
        <mxCell id="FupmvhsSTydDdCJmexPb-48" value="Container" style="ellipse;shape=doubleEllipse;whiteSpace=wrap;html=1;" vertex="1" parent="FupmvhsSTydDdCJmexPb-63">
          <mxGeometry x="5" y="87" width="68" height="33" as="geometry" />
        </mxCell>
        <mxCell id="FupmvhsSTydDdCJmexPb-79" value="" style="edgeStyle=segmentEdgeStyle;endArrow=classic;html=1;rounded=0;entryX=0.5;entryY=1;entryDx=0;entryDy=0;" edge="1" parent="WIyWlLk6GJQsqaUBKTNV-1" target="FupmvhsSTydDdCJmexPb-93">
          <mxGeometry width="50" height="50" relative="1" as="geometry">
            <mxPoint x="670" y="759" as="sourcePoint" />
            <mxPoint x="670" y="660" as="targetPoint" />
            <Array as="points">
              <mxPoint x="670" y="690" />
              <mxPoint x="615" y="690" />
            </Array>
          </mxGeometry>
        </mxCell>
        <mxCell id="FupmvhsSTydDdCJmexPb-80" value="" style="edgeStyle=segmentEdgeStyle;endArrow=classic;html=1;rounded=0;exitX=0.625;exitY=0.2;exitDx=0;exitDy=0;exitPerimeter=0;entryX=0.5;entryY=1;entryDx=0;entryDy=0;" edge="1" parent="WIyWlLk6GJQsqaUBKTNV-1" source="FupmvhsSTydDdCJmexPb-54" target="FupmvhsSTydDdCJmexPb-92">
          <mxGeometry width="50" height="50" relative="1" as="geometry">
            <mxPoint x="320" y="800" as="sourcePoint" />
            <mxPoint x="380" y="660" as="targetPoint" />
            <Array as="points">
              <mxPoint x="379" y="750" />
              <mxPoint x="445" y="750" />
            </Array>
          </mxGeometry>
        </mxCell>
        <mxCell id="FupmvhsSTydDdCJmexPb-91" value="Kube Proxy" style="rounded=0;whiteSpace=wrap;html=1;opacity=50;" vertex="1" parent="WIyWlLk6GJQsqaUBKTNV-1">
          <mxGeometry x="234" y="592" width="76" height="20" as="geometry" />
        </mxCell>
        <mxCell id="FupmvhsSTydDdCJmexPb-92" value="Kube Proxy" style="rounded=0;whiteSpace=wrap;html=1;opacity=50;" vertex="1" parent="WIyWlLk6GJQsqaUBKTNV-1">
          <mxGeometry x="407" y="592" width="76" height="20" as="geometry" />
        </mxCell>
        <mxCell id="FupmvhsSTydDdCJmexPb-93" value="Kube Proxy" style="rounded=0;whiteSpace=wrap;html=1;opacity=50;" vertex="1" parent="WIyWlLk6GJQsqaUBKTNV-1">
          <mxGeometry x="577" y="591" width="76" height="20" as="geometry" />
        </mxCell>
      </root>
    </mxGraphModel>
  </diagram>
</mxfile>
